<svg width="285" height="24" viewBox="0 0 285 24" fill="none" xmlns="http://www.w3.org/2000/svg">
<path d="M15.2321 13.5361H9.66411V18.9761H5.53611V13.5361H0.000113368V9.63206H5.53611V4.19206H9.66411V9.63206H15.2321V13.5361ZM28.2594 9.50406C30.222 9.82406 31.726 10.5601 32.7714 11.7121C33.8167 12.8427 34.3394 14.2507 34.3394 15.9361C34.3394 17.2374 33.998 18.4427 33.3154 19.5521C32.6327 20.6401 31.5874 21.5147 30.1794 22.1761C28.7927 22.8374 27.086 23.1681 25.0594 23.1681C23.4807 23.1681 21.9234 22.9654 20.3874 22.5601C18.8727 22.1334 17.582 21.5361 16.5154 20.7681L18.5314 16.8001C19.3847 17.4401 20.366 17.9414 21.4754 18.3041C22.606 18.6454 23.758 18.8161 24.9314 18.8161C26.2327 18.8161 27.2567 18.5707 28.0034 18.0801C28.75 17.5681 29.1234 16.8534 29.1234 15.9361C29.1234 14.1014 27.726 13.1841 24.9314 13.1841H22.5634V9.76006L27.1714 4.54406H17.6354V0.384056H33.3154V3.74406L28.2594 9.50406ZM53.9876 0.384056V3.74406L45.6676 22.7841H40.0356L48.0676 4.60806H40.6436V8.25606H36.0356V0.384056H53.9876ZM63.4441 8.80006C66.6014 8.80006 68.9268 9.42939 70.4201 10.6881C71.9348 11.9467 72.6921 13.6321 72.6921 15.7441C72.6921 17.1094 72.3508 18.3574 71.6681 19.4881C70.9854 20.5974 69.9401 21.4934 68.5321 22.1761C67.1454 22.8374 65.4281 23.1681 63.3801 23.1681C61.8014 23.1681 60.2441 22.9654 58.7081 22.5601C57.1934 22.1334 55.9028 21.5361 54.8361 20.7681L56.8841 16.8001C57.7374 17.4401 58.7188 17.9414 59.8281 18.3041C60.9374 18.6454 62.0788 18.8161 63.2521 18.8161C64.5534 18.8161 65.5774 18.5601 66.3241 18.0481C67.0708 17.5361 67.4441 16.8214 67.4441 15.9041C67.4441 14.9441 67.0494 14.2187 66.2601 13.7281C65.4921 13.2374 64.1481 12.9921 62.2281 12.9921H56.5001L57.6521 0.384056H71.3161V4.54406H61.9721L61.6201 8.80006H63.4441ZM100.594 18.5601V22.7841H83.6659V19.4241L92.3059 11.2641C93.2232 10.3894 93.8419 9.64272 94.1619 9.02406C94.4819 8.38406 94.6419 7.75472 94.6419 7.13606C94.6419 6.24006 94.3325 5.55739 93.7139 5.08806C93.1165 4.59739 92.2312 4.35206 91.0579 4.35206C90.0765 4.35206 89.1912 4.54406 88.4019 4.92806C87.6125 5.29072 86.9512 5.84539 86.4179 6.59206L82.6419 4.16006C83.5165 2.85872 84.7219 1.84539 86.2579 1.12006C87.7939 0.37339 89.5539 5.72205e-05 91.5379 5.72205e-05C93.2019 5.72205e-05 94.6525 0.27739 95.8899 0.832056C97.1485 1.36539 98.1192 2.13339 98.8019 3.13606C99.5059 4.11739 99.8579 5.28006 99.8579 6.62406C99.8579 7.84006 99.6019 8.98139 99.0899 10.0481C98.5779 11.1147 97.5859 12.3307 96.1139 13.6961L90.9619 18.5601H100.594ZM110.605 5.72205e-05C113.741 5.72205e-05 116.194 0.960057 117.965 2.88006C119.736 4.77872 120.621 7.52006 120.621 11.1041C120.621 13.6427 120.141 15.8187 119.181 17.6321C118.242 19.4454 116.909 20.8214 115.181 21.7601C113.453 22.6987 111.458 23.1681 109.197 23.1681C108.002 23.1681 106.861 23.0401 105.773 22.7841C104.685 22.5067 103.757 22.1227 102.989 21.6321L104.909 17.8241C105.997 18.5707 107.394 18.9441 109.101 18.9441C111 18.9441 112.504 18.3894 113.613 17.2801C114.722 16.1494 115.32 14.5281 115.405 12.4161C114.061 13.7601 112.205 14.4321 109.837 14.4321C108.408 14.4321 107.106 14.1441 105.933 13.5681C104.76 12.9921 103.832 12.1814 103.149 11.1361C102.466 10.0694 102.125 8.84272 102.125 7.45606C102.125 5.96272 102.498 4.65072 103.245 3.52006C103.992 2.38939 105.005 1.52539 106.285 0.928057C107.586 0.30939 109.026 5.72205e-05 110.605 5.72205e-05ZM110.989 10.5601C112.12 10.5601 113.037 10.2507 113.741 9.63206C114.466 8.99206 114.829 8.18139 114.829 7.20006C114.829 6.21872 114.477 5.41872 113.773 4.80006C113.09 4.18139 112.141 3.87206 110.925 3.87206C109.816 3.87206 108.909 4.17072 108.205 4.76806C107.522 5.36539 107.181 6.17606 107.181 7.20006C107.181 8.22406 107.522 9.04539 108.205 9.66406C108.909 10.2614 109.837 10.5601 110.989 10.5601ZM142.634 9.50406C144.597 9.82406 146.101 10.5601 147.146 11.7121C148.192 12.8427 148.714 14.2507 148.714 15.9361C148.714 17.2374 148.373 18.4427 147.69 19.5521C147.008 20.6401 145.962 21.5147 144.554 22.1761C143.168 22.8374 141.461 23.1681 139.434 23.1681C137.856 23.1681 136.298 22.9654 134.762 22.5601C133.248 22.1334 131.957 21.5361 130.89 20.7681L132.906 16.8001C133.76 17.4401 134.741 17.9414 135.85 18.3041C136.981 18.6454 138.133 18.8161 139.306 18.8161C140.608 18.8161 141.632 18.5707 142.378 18.0801C143.125 17.5681 143.498 16.8534 143.498 15.9361C143.498 14.1014 142.101 13.1841 139.306 13.1841H136.938V9.76006L141.546 4.54406H132.01V0.384056H147.69V3.74406L142.634 9.50406ZM158.475 8.80006C161.633 8.80006 163.958 9.42939 165.451 10.6881C166.966 11.9467 167.723 13.6321 167.723 15.7441C167.723 17.1094 167.382 18.3574 166.699 19.4881C166.017 20.5974 164.971 21.4934 163.563 22.1761C162.177 22.8374 160.459 23.1681 158.411 23.1681C156.833 23.1681 155.275 22.9654 153.739 22.5601C152.225 22.1334 150.934 21.5361 149.867 20.7681L151.915 16.8001C152.769 17.4401 153.75 17.9414 154.859 18.3041C155.969 18.6454 157.11 18.8161 158.283 18.8161C159.585 18.8161 160.609 18.5601 161.355 18.0481C162.102 17.5361 162.475 16.8214 162.475 15.9041C162.475 14.9441 162.081 14.2187 161.291 13.7281C160.523 13.2374 159.179 12.9921 157.259 12.9921H151.531L152.683 0.384056H166.347V4.54406H157.003L156.651 8.80006H158.475ZM178.467 0.384056V22.7841H173.283V4.54406H168.803V0.384056H178.467ZM182.774 11.7761H191.83V15.7761H182.774V11.7761ZM210.938 18.5601V22.7841H194.01V19.4241L202.65 11.2641C203.567 10.3894 204.186 9.64272 204.506 9.02406C204.826 8.38406 204.986 7.75472 204.986 7.13606C204.986 6.24006 204.676 5.55739 204.058 5.08806C203.46 4.59739 202.575 4.35206 201.402 4.35206C200.42 4.35206 199.535 4.54406 198.746 4.92806C197.956 5.29072 197.295 5.84539 196.762 6.59206L192.986 4.16006C193.86 2.85872 195.066 1.84539 196.602 1.12006C198.138 0.37339 199.898 5.72205e-05 201.882 5.72205e-05C203.546 5.72205e-05 204.996 0.27739 206.234 0.832056C207.492 1.36539 208.463 2.13339 209.146 3.13606C209.85 4.11739 210.202 5.28006 210.202 6.62406C210.202 7.84006 209.946 8.98139 209.434 10.0481C208.922 11.1147 207.93 12.3307 206.458 13.6961L201.306 18.5601H210.938ZM230.55 0.384056V3.74406L222.23 22.7841H216.598L224.63 4.60806H217.206V8.25606H212.598V0.384056H230.55ZM231.68 11.7761H240.736V15.7761H231.68V11.7761ZM264.245 18.0801H260.597V22.7841H255.541V18.0801H243.477V14.5921L254.037 0.384056H259.477L249.685 13.8561H255.701V9.66406H260.597V13.8561H264.245V18.0801ZM275.395 23.1681C273.539 23.1681 271.886 22.7094 270.435 21.7921C268.985 20.8747 267.843 19.5521 267.011 17.8241C266.201 16.0747 265.795 13.9947 265.795 11.5841C265.795 9.17339 266.201 7.10406 267.011 5.37606C267.843 3.62672 268.985 2.29339 270.435 1.37606C271.886 0.458724 273.539 5.72205e-05 275.395 5.72205e-05C277.251 5.72205e-05 278.905 0.458724 280.355 1.37606C281.806 2.29339 282.937 3.62672 283.747 5.37606C284.579 7.10406 284.995 9.17339 284.995 11.5841C284.995 13.9947 284.579 16.0747 283.747 17.8241C282.937 19.5521 281.806 20.8747 280.355 21.7921C278.905 22.7094 277.251 23.1681 275.395 23.1681ZM275.395 18.7841C276.761 18.7841 277.827 18.1974 278.595 17.0241C279.385 15.8507 279.779 14.0374 279.779 11.5841C279.779 9.13072 279.385 7.31739 278.595 6.14406C277.827 4.97072 276.761 4.38406 275.395 4.38406C274.051 4.38406 272.985 4.97072 272.195 6.14406C271.427 7.31739 271.043 9.13072 271.043 11.5841C271.043 14.0374 271.427 15.8507 272.195 17.0241C272.985 18.1974 274.051 18.7841 275.395 18.7841Z" fill="#041A3F"/>
</svg>
