<svg width="166" height="32" viewBox="0 0 166 32" fill="none" xmlns="http://www.w3.org/2000/svg">
<path d="M9.44013 26.176C7.62679 26.176 5.86679 25.952 4.16013 25.504C2.45346 25.056 1.06679 24.4587 0.000125051 23.712L2.08013 19.04C3.08279 19.7014 4.24546 20.2347 5.56813 20.64C6.89079 21.0454 8.19213 21.248 9.47213 21.248C11.9041 21.248 13.1201 20.64 13.1201 19.424C13.1201 18.784 12.7681 18.3147 12.0641 18.016C11.3815 17.696 10.2721 17.3654 8.73612 17.024C7.05079 16.6614 5.64279 16.2774 4.51213 15.872C3.38146 15.4454 2.41079 14.7734 1.60013 13.856C0.789458 12.9387 0.384125 11.7014 0.384125 10.144C0.384125 8.77869 0.757458 7.55203 1.50413 6.46403C2.25079 5.35469 3.36013 4.48003 4.83213 3.84003C6.32546 3.20003 8.14946 2.88003 10.3041 2.88003C11.7761 2.88003 13.2268 3.05069 14.6561 3.39203C16.0855 3.71203 17.3441 4.19203 18.4321 4.83203L16.4801 9.53603C14.3468 8.38403 12.2775 7.80803 10.2721 7.80803C9.01346 7.80803 8.09613 8.00003 7.52013 8.38403C6.94413 8.74669 6.65613 9.22669 6.65613 9.82403C6.65613 10.4214 6.99746 10.8694 7.68013 11.168C8.36279 11.4667 9.46146 11.776 10.9761 12.096C12.6828 12.4587 14.0908 12.8534 15.2001 13.28C16.3308 13.6854 17.3015 14.3467 18.1121 15.264C18.9441 16.16 19.3601 17.3867 19.3601 18.944C19.3601 20.288 18.9868 21.504 18.2401 22.592C17.4935 23.68 16.3735 24.5547 14.8801 25.216C13.3868 25.856 11.5735 26.176 9.44013 26.176ZM40.2389 8.38403V25.728H34.4469V23.872C33.8069 24.576 33.0389 25.1094 32.1429 25.472C31.2469 25.8347 30.2975 26.016 29.2949 26.016C27.0549 26.016 25.2629 25.3547 23.9189 24.032C22.5962 22.7094 21.9349 20.7254 21.9349 18.08V8.38403H28.0149V17.088C28.0149 18.3894 28.2602 19.3387 28.7509 19.936C29.2415 20.5334 29.9562 20.832 30.8949 20.832C31.8549 20.832 32.6335 20.5014 33.2309 19.84C33.8495 19.1574 34.1589 18.1227 34.1589 16.736V8.38403H40.2389ZM55.0671 8.09603C56.6458 8.09603 58.0751 8.46936 59.3551 9.21603C60.6565 9.94136 61.6805 10.9867 62.4271 12.352C63.1951 13.696 63.5791 15.264 63.5791 17.056C63.5791 18.848 63.1951 20.4267 62.4271 21.792C61.6805 23.136 60.6565 24.1814 59.3551 24.928C58.0751 25.6534 56.6458 26.016 55.0671 26.016C53.0405 26.016 51.4298 25.408 50.2351 24.192V31.936H44.1551V8.38403H49.9471V10.112C51.0778 8.76803 52.7845 8.09603 55.0671 8.09603ZM53.7871 21.184C54.8538 21.184 55.7285 20.8214 56.4111 20.096C57.0938 19.3494 57.4351 18.336 57.4351 17.056C57.4351 15.776 57.0938 14.7734 56.4111 14.048C55.7285 13.3014 54.8538 12.928 53.7871 12.928C52.7205 12.928 51.8458 13.3014 51.1631 14.048C50.4805 14.7734 50.1391 15.776 50.1391 17.056C50.1391 18.336 50.4805 19.3494 51.1631 20.096C51.8458 20.8214 52.7205 21.184 53.7871 21.184ZM75.6851 21.376C76.5171 21.376 77.2318 21.2587 77.8291 21.024C78.4478 20.7894 79.0665 20.4054 79.6851 19.872L82.8531 23.2C81.2105 25.0774 78.7571 26.016 75.4931 26.016C73.4665 26.016 71.6851 25.632 70.1491 24.864C68.6131 24.096 67.4185 23.0294 66.5651 21.664C65.7331 20.2987 65.3171 18.752 65.3171 17.024C65.3171 15.3174 65.7331 13.792 66.5651 12.448C67.3971 11.0827 68.5385 10.016 69.9891 9.24803C71.4611 8.48003 73.1038 8.09603 74.9171 8.09603C76.6025 8.09603 78.1385 8.44803 79.5251 9.15203C80.9331 9.83469 82.0531 10.848 82.8851 12.192C83.7171 13.5147 84.1331 15.0934 84.1331 16.928L71.7491 19.296C72.4105 20.6827 73.7225 21.376 75.6851 21.376ZM74.9491 12.416C73.9038 12.416 73.0505 12.7467 72.3891 13.408C71.7278 14.048 71.3545 14.976 71.2691 16.192L78.3091 14.816C78.0958 14.0907 77.6905 13.5147 77.0931 13.088C76.4958 12.64 75.7811 12.416 74.9491 12.416ZM92.7284 10.464C93.347 9.67469 94.147 9.08803 95.1284 8.70403C96.131 8.29869 97.2724 8.09603 98.5524 8.09603V13.568C97.9977 13.504 97.539 13.472 97.1764 13.472C95.875 13.472 94.851 13.824 94.1044 14.528C93.379 15.232 93.0164 16.3094 93.0164 17.76V25.728H86.9364V8.38403H92.7284V10.464Z" fill="#FFCA33"/>
<path d="M109.284 26.176C107.471 26.176 105.711 25.952 104.004 25.504C102.297 25.056 100.911 24.4587 99.8439 23.712L101.924 19.04C102.927 19.7014 104.089 20.2347 105.412 20.64C106.735 21.0454 108.036 21.248 109.316 21.248C111.748 21.248 112.964 20.64 112.964 19.424C112.964 18.784 112.612 18.3147 111.908 18.016C111.225 17.696 110.116 17.3654 108.58 17.024C106.895 16.6614 105.487 16.2774 104.356 15.872C103.225 15.4454 102.255 14.7734 101.444 13.856C100.633 12.9387 100.228 11.7014 100.228 10.144C100.228 8.77869 100.601 7.55203 101.348 6.46403C102.095 5.35469 103.204 4.48003 104.676 3.84003C106.169 3.20003 107.993 2.88003 110.148 2.88003C111.62 2.88003 113.071 3.05069 114.5 3.39203C115.929 3.71203 117.188 4.19203 118.276 4.83203L116.324 9.53603C114.191 8.38403 112.121 7.80803 110.116 7.80803C108.857 7.80803 107.94 8.00003 107.364 8.38403C106.788 8.74669 106.5 9.22669 106.5 9.82403C106.5 10.4214 106.841 10.8694 107.524 11.168C108.207 11.4667 109.305 11.776 110.82 12.096C112.527 12.4587 113.935 12.8534 115.044 13.28C116.175 13.6854 117.145 14.3467 117.956 15.264C118.788 16.16 119.204 17.3867 119.204 18.944C119.204 20.288 118.831 21.504 118.084 22.592C117.337 23.68 116.217 24.5547 114.724 25.216C113.231 25.856 111.417 26.176 109.284 26.176ZM140.083 8.38403V25.728H134.291V23.872C133.651 24.576 132.883 25.1094 131.987 25.472C131.091 25.8347 130.141 26.016 129.139 26.016C126.899 26.016 125.107 25.3547 123.763 24.032C122.44 22.7094 121.779 20.7254 121.779 18.08V8.38403H127.859V17.088C127.859 18.3894 128.104 19.3387 128.595 19.936C129.085 20.5334 129.8 20.832 130.739 20.832C131.699 20.832 132.477 20.5014 133.075 19.84C133.693 19.1574 134.003 18.1227 134.003 16.736V8.38403H140.083ZM143.999 8.38403H150.079V25.728H143.999V8.38403ZM147.039 6.46403C145.93 6.46403 145.034 6.15469 144.351 5.53603C143.668 4.91736 143.327 4.14936 143.327 3.23203C143.327 2.31469 143.668 1.54669 144.351 0.928026C145.034 0.30936 145.93 2.67029e-05 147.039 2.67029e-05C148.148 2.67029e-05 149.044 0.298693 149.727 0.896027C150.41 1.47203 150.751 2.21869 150.751 3.13603C150.751 4.09603 150.41 4.89603 149.727 5.53603C149.044 6.15469 148.148 6.46403 147.039 6.46403ZM165.198 25.024C164.686 25.344 164.057 25.5894 163.31 25.76C162.585 25.9307 161.806 26.016 160.974 26.016C158.713 26.016 156.974 25.4614 155.758 24.352C154.563 23.2427 153.966 21.5894 153.966 19.392V4.51203H160.046V9.02403H163.982V13.568H160.046V19.328C160.046 19.968 160.206 20.4587 160.526 20.8C160.846 21.1414 161.283 21.312 161.838 21.312C162.542 21.312 163.161 21.1307 163.694 20.768L165.198 25.024Z" fill="#041A3F"/>
</svg>
